<?xml version="1.0" encoding="UTF-8" standalone="no"?>
<svg
   xmlns:dc="http://purl.org/dc/elements/1.1/"
   xmlns:cc="http://creativecommons.org/ns#"
   xmlns:rdf="http://www.w3.org/1999/02/22-rdf-syntax-ns#"
   xmlns:svg="http://www.w3.org/2000/svg"
   xmlns="http://www.w3.org/2000/svg"
   xmlns:xlink="http://www.w3.org/1999/xlink"
   xmlns:sodipodi="http://sodipodi.sourceforge.net/DTD/sodipodi-0.dtd"
   xmlns:inkscape="http://www.inkscape.org/namespaces/inkscape"
   width="110.22353mm"
   height="46.360111mm"
   viewBox="0 0 110.22353 46.360111"
   version="1.1"
   id="svg1292"
   inkscape:version="1.0.2 (e86c8708, 2021-01-15)"
   sodipodi:docname="g2_orderings.svg">
  <defs
     id="defs1286">
    <linearGradient
       inkscape:collect="always"
       id="linearGradient861">
      <stop
         style="stop-color:#0085bd;stop-opacity:1"
         offset="0"
         id="stop857" />
      <stop
         style="stop-color:#fffcff;stop-opacity:0"
         offset="1"
         id="stop859" />
    </linearGradient>
    <linearGradient
       inkscape:collect="always"
       xlink:href="#linearGradient861"
       id="linearGradient1410"
       gradientUnits="userSpaceOnUse"
       gradientTransform="matrix(0.85897436,0,0,0.83098592,-86.189837,28.177258)"
       x1="46.092529"
       y1="131.58403"
       x2="68.014587"
       y2="111.62934" />
    <linearGradient
       inkscape:collect="always"
       xlink:href="#linearGradient861"
       id="linearGradient1412"
       gradientUnits="userSpaceOnUse"
       gradientTransform="matrix(0.85897436,0,0,0.83098592,-177.1135,-99.405703)"
       x1="46.092529"
       y1="131.58403"
       x2="68.014587"
       y2="111.62934" />
  </defs>
  <sodipodi:namedview
     id="base"
     pagecolor="#ffffff"
     bordercolor="#666666"
     borderopacity="1.0"
     inkscape:pageopacity="0.0"
     inkscape:pageshadow="2"
     inkscape:zoom="1.1185981"
     inkscape:cx="209.43878"
     inkscape:cy="126.60944"
     inkscape:document-units="mm"
     inkscape:current-layer="layer1"
     inkscape:document-rotation="0"
     showgrid="false"
     fit-margin-top="0"
     fit-margin-left="0"
     fit-margin-right="0"
     fit-margin-bottom="0"
     inkscape:window-width="1252"
     inkscape:window-height="829"
     inkscape:window-x="0"
     inkscape:window-y="23"
     inkscape:window-maximized="0" />
  <metadata
     id="metadata1289">
    <rdf:RDF>
      <cc:Work
         rdf:about="">
        <dc:format>image/svg+xml</dc:format>
        <dc:type
           rdf:resource="http://purl.org/dc/dcmitype/StillImage" />
        <dc:title></dc:title>
      </cc:Work>
    </rdf:RDF>
  </metadata>
  <g
     inkscape:label="Layer 1"
     inkscape:groupmode="layer"
     id="layer1"
     transform="translate(-1.8922495,-1.8922495)">
    <rect
       style="fill:#ffffff;stroke-width:0.765"
       id="rect1615"
       width="110.22353"
       height="46.360111"
       x="1.8922495"
       y="1.8922495" />
    <g
       id="g1603"
       transform="translate(73.594767,-95.453127)">
      <g
         id="g1593">
        <path
           style="fill:none;stroke:#000000;stroke-width:0.648572;stroke-linecap:butt;stroke-linejoin:miter;stroke-miterlimit:4;stroke-dasharray:none;stroke-opacity:1"
           d="m -46.922358,116.65492 v 21.16801"
           id="path10" />
        <path
           style="fill:none;stroke:#000000;stroke-width:0.648573;stroke-linecap:butt;stroke-linejoin:miter;stroke-miterlimit:4;stroke-dasharray:none;stroke-opacity:1"
           d="m -25.731246,137.84602 h -42.38222"
           id="path10-2" />
        <rect
           style="fill:url(#linearGradient1410);fill-opacity:1;stroke-width:0.646321;stroke-miterlimit:4;stroke-dasharray:none"
           id="rect855"
           width="18.830484"
           height="16.582069"
           x="-46.597538"
           y="120.93967" />
      </g>
      <g
         id="g1578"
         transform="translate(-51.001053,20.185253)">
        <path
           id="use1486"
           d="m -6.6666608,83.322773 c 0,-0.280292 0,-0.292467 -0.243729,-0.292467 -0.292505,0.32903 -0.901835,0.779967 -2.157093,0.779967 v 0.353418 c 0.280292,0 0.889649,0 1.559934,-0.316855 v 6.349414 c 0,0.438731 -0.0366,0.584976 -1.109016,0.584976 h -0.377807 v 0.353419 c 0.32903,-0.02427 1.511185,-0.02427 1.913353,-0.02427 0.402172,0 1.57212,0 1.90117,0.02427 v -0.353419 h -0.377807 c -1.072453,0 -1.109017,-0.146253 -1.109017,-0.584976 z"
           style="stroke-width:0.105473" />
        <path
           id="use1488"
           d="m 7.9419691,87.326211 c -0.6702851,0.511854 -0.9993345,1.011517 -1.0968299,1.169949 -0.548413,0.840903 -0.6459084,1.60868 -0.6459084,1.62087 0,0.146253 0.1462527,0.146253 0.2437288,0.146253 0.2071657,0 0.2193791,-0.02427 0.2681172,-0.243729 0.280292,-1.194322 0.9993307,-2.218029 2.3764603,-2.778629 0.1462527,-0.04874 0.1828159,-0.07313 0.1828159,-0.158427 0,-0.0853 -0.073126,-0.121865 -0.097515,-0.134078 C 8.6366118,86.741254 7.1619867,86.131894 6.6988826,84.084483 6.6622809,83.93823 6.6501446,83.901667 6.4429404,83.901667 c -0.097476,0 -0.2437289,0 -0.2437289,0.146253 0,0.02427 0.1096896,0.792153 0.6215356,1.608679 0.2437288,0.365594 0.5971626,0.792154 1.1212028,1.182139 h -9.0549236 c -0.2193791,0 -0.4387312,0 -0.4387312,0.243729 0,0.243729 0.2193791,0.243729 0.4387312,0.243729 z"
           style="stroke-width:0.105473" />
        <path
           id="use1490"
           d="M 17.224877,89.087136 H 16.95676 c -0.0366,0.207166 -0.134039,0.877463 -0.255942,1.072458 -0.0853,0.109689 -0.779967,0.109689 -1.145576,0.109689 H 13.30065 c 0.32903,-0.280292 1.072457,-1.060267 1.389316,-1.352757 1.85242,-1.706175 2.534892,-2.339897 2.534892,-3.546409 0,-1.401502 -1.109016,-2.339897 -2.522705,-2.339897 -1.413689,0 -2.242402,1.206508 -2.242402,2.254588 0,0.621536 0.536226,0.621536 0.572786,0.621536 0.255942,0 0.572789,-0.182816 0.572789,-0.572786 0,-0.341243 -0.231553,-0.57279 -0.572789,-0.57279 -0.10969,0 -0.13404,0 -0.170603,0.01233 0.231554,-0.828712 0.889649,-1.389312 1.681803,-1.389312 1.035893,0 1.669615,0.865272 1.669615,1.986475 0,1.035894 -0.597158,1.937729 -1.291817,2.717696 l -2.461769,2.754267 v 0.292506 h 4.448244 z"
           style="stroke-width:0.105473" />
      </g>
    </g>
    <g
       id="g1613"
       transform="translate(76.2406,-95.453127)">
      <g
         id="g1588"
         transform="translate(-0.72049585)">
        <path
           style="fill:none;stroke:#000000;stroke-width:0.648573;stroke-linecap:butt;stroke-linejoin:miter;stroke-miterlimit:4;stroke-dasharray:none;stroke-opacity:1"
           d="M -9.002711,137.84602 H 33.379505"
           id="path10-7-7" />
        <path
           style="fill:none;stroke:#000000;stroke-width:0.648571;stroke-linecap:butt;stroke-linejoin:miter;stroke-miterlimit:4;stroke-dasharray:none;stroke-opacity:1"
           d="m 12.188397,116.65491 v 21.34434"
           id="path10-2-0-2" />
        <rect
           style="fill:url(#linearGradient1412);fill-opacity:1;stroke-width:0.646321;stroke-miterlimit:4;stroke-dasharray:none"
           id="rect855-3-3"
           width="18.830484"
           height="16.582069"
           x="-137.52121"
           y="-4.7179518"
           transform="rotate(-90)" />
      </g>
      <g
         id="g1583"
         transform="translate(6.2761947,-51.559838)">
        <path
           id="use1486-3"
           d="m 16.830336,155.06786 c 0,-0.28029 0,-0.29247 -0.243729,-0.29247 -0.292505,0.32903 -0.901835,0.77997 -2.157093,0.77997 v 0.35342 c 0.280292,0 0.889649,0 1.559934,-0.31686 v 6.34942 c 0,0.43873 -0.0366,0.58497 -1.109016,0.58497 h -0.377807 v 0.35342 c 0.32903,-0.0243 1.511185,-0.0243 1.913353,-0.0243 0.402172,0 1.57212,0 1.90117,0.0243 v -0.35342 h -0.377807 c -1.072453,0 -1.109017,-0.14625 -1.109017,-0.58497 z"
           style="stroke-width:0.105473" />
        <path
           id="use1488-6"
           d="m 9.4937246,159.07131 c -0.6702851,0.51185 -0.9993345,1.0115 -1.0968299,1.16995 -0.548413,0.8409 -0.6459084,1.60868 -0.6459084,1.62087 0,0.14625 0.1462527,0.14625 0.2437288,0.14625 0.2071657,0 0.2193791,-0.0243 0.2681172,-0.24373 0.280292,-1.19432 0.9993307,-2.21803 2.3764607,-2.77863 0.146253,-0.0487 0.182816,-0.0731 0.182816,-0.15843 0,-0.0853 -0.07313,-0.12186 -0.09751,-0.13407 -0.536226,-0.20717 -2.0108518,-0.81653 -2.4739559,-2.86395 -0.036602,-0.14625 -0.048738,-0.18281 -0.2559422,-0.18281 -0.097476,0 -0.2437289,0 -0.2437289,0.14626 0,0.0243 0.1096896,0.79215 0.6215356,1.60868 0.2437288,0.36559 0.5971626,0.79214 1.1212028,1.18213 H 0.43878181 c -0.2193791,0 -0.438731199111,0 -0.438731199111,0.24373 0,0.24373 0.219379099111,0.24373 0.438731199111,0.24373 z"
           style="stroke-width:0.105473" />
        <path
           id="use1490-5"
           d="m -3.1686091,160.83223 h -0.268117 c -0.0366,0.20717 -0.134039,0.87747 -0.255942,1.07246 -0.0853,0.10969 -0.779967,0.10969 -1.145576,0.10969 h -2.254592 c 0.32903,-0.28029 1.072457,-1.06027 1.389316,-1.35275 1.85242,-1.70617 2.534892,-2.33989 2.534892,-3.54642 0,-1.4015 -1.109016,-2.33989 -2.522705,-2.33989 -1.413689,0 -2.242402,1.20652 -2.242402,2.25459 0,0.62154 0.536226,0.62154 0.572786,0.62154 0.255942,0 0.572789,-0.18281 0.572789,-0.57278 0,-0.34125 -0.231553,-0.57279 -0.572789,-0.57279 -0.10969,0 -0.13404,0 -0.170603,0.0123 0.231554,-0.82872 0.889649,-1.38932 1.681803,-1.38932 1.035893,0 1.669615,0.86528 1.669615,1.98648 0,1.03589 -0.597158,1.93773 -1.291817,2.71769 l -2.461769,2.75427 v 0.29251 h 4.448244 z"
           style="stroke-width:0.105473" />
      </g>
    </g>
  </g>
</svg>
